<?xml version="1.0" encoding="UTF-8"?>
<svg version="1.1" xmlns="http://www.w3.org/2000/svg" width="5000" height="2638">
<path d="M0 0 C1650 0 3300 0 5000 0 C5000 870.54 5000 1741.08 5000 2638 C3350 2638 1700 2638 0 2638 C0 1767.46 0 896.92 0 0 Z " fill="#FEFEFE" transform="translate(0,0)"/>
<path d="M0 0 C552.75 0 1105.5 0 1675 0 C1675 870.54 1675 1741.08 1675 2638 C1122.25 2638 569.5 2638 0 2638 C0 1767.46 0 896.92 0 0 Z " fill="#012596" transform="translate(0,0)"/>
<path d="M0 0 C543.84 0 1087.68 0 1648 0 C1648 870.54 1648 1741.08 1648 2638 C1104.16 2638 560.32 2638 0 2638 C0 1767.46 0 896.92 0 0 Z " fill="#ED2839" transform="translate(3352,0)"/>
<path d="M0 0 C0.99 0 1.98 0 3 0 C3 870.54 3 1741.08 3 2638 C2.01 2638 1.02 2638 0 2638 C0 1767.46 0 896.92 0 0 Z " fill="#EB3240" transform="translate(4997,0)"/>
</svg>
