<?xml version="1.0" encoding="UTF-8"?>
<svg version="1.1" xmlns="http://www.w3.org/2000/svg" width="3750" height="1975">
<path d="M0 0 C1237.5 0 2475 0 3750 0 C3750 651.75 3750 1303.5 3750 1975 C2512.5 1975 1275 1975 0 1975 C0 1323.25 0 671.5 0 0 Z " fill="#683A46" transform="translate(0,0)"/>
<path d="M0 0 C1237.5 0 2475 0 3750 0 C3750 150.81 3750 301.62 3750 457 C2512.5 457 1275 457 0 457 C0 306.19 0 155.38 0 0 Z " fill="#7E7D7D" transform="translate(0,0)"/>
<path d="M0 0 C1237.5 0 2475 0 3750 0 C3750 48.51 3750 97.02 3750 147 C2512.5 147 1275 147 0 147 C0 98.49 0 49.98 0 0 Z " fill="#371127" transform="translate(0,0)"/>
<path d="M0 0 C1237.5 0 2475 0 3750 0 C3750 7.59 3750 15.18 3750 23 C2512.5 23 1275 23 0 23 C0 15.41 0 7.82 0 0 Z " fill="#3C152A" transform="translate(0,0)"/>
<path d="M0 0 C1237.5 0 2475 0 3750 0 C3750 2.31 3750 4.62 3750 7 C2512.5 7 1275 7 0 7 C0 4.69 0 2.38 0 0 Z " fill="#481B32" transform="translate(0,0)"/>
</svg>
